HIERARCHY
ROOT Pelvis
{
	OFFSET 0.000000 0.000000 0.000000
	CHANNELS 6 Xposition Yposition Zposition Zrotation Yrotation Xrotation 
	JOINT Left_hip
	{
		OFFSET 0.067986 -0.089946 -0.007639
		CHANNELS 3 Zrotation Yrotation Xrotation
		JOINT Left_knee
		{
			OFFSET 0.036308 -0.388288 -0.004016
			CHANNELS 3 Zrotation Yrotation Xrotation
			JOINT Left_ankle
			{
				OFFSET -0.012264 -0.413250 -0.042878
				CHANNELS 3 Zrotation Yrotation Xrotation
				JOINT Left_foot
				{
					OFFSET 0.024043 -0.058563 0.118570
					CHANNELS 3 Zrotation Yrotation Xrotation
					End Site
					{
						OFFSET 0.000000 0.000000 0.000000
					}
				}
			}
		}
	}
	JOINT Right_hip
	{
		OFFSET -0.065648 -0.089374 -0.003858
		CHANNELS 3 Zrotation Yrotation Xrotation
		JOINT Right_knee
		{
			OFFSET -0.042132 -0.395021 -0.006361
			CHANNELS 3 Zrotation Yrotation Xrotation
			JOINT Right_ankle
			{
				OFFSET 0.014805 -0.413264 -0.041054
				CHANNELS 3 Zrotation Yrotation Xrotation
				JOINT Right_foot
				{
					OFFSET -0.021758 -0.049013 0.121832
					CHANNELS 3 Zrotation Yrotation Xrotation
					End Site
					{
						OFFSET 0.000000 0.000000 0.000000
					}
				}
			}
		}
	}
	JOINT Spine1
	{
		OFFSET -0.002755 0.104406 -0.022277
		CHANNELS 3 Zrotation Yrotation Xrotation
		JOINT Spine2
		{
			OFFSET 0.004136 0.129393 -0.002186
			CHANNELS 3 Zrotation Yrotation Xrotation
			JOINT Spine3
			{
				OFFSET 0.001906 0.049304 0.025578
				CHANNELS 3 Zrotation Yrotation Xrotation
				JOINT Neck
				{
					OFFSET -0.004620 0.210958 -0.044063
					CHANNELS 3 Zrotation Yrotation Xrotation
					JOINT Head
					{
						OFFSET 0.003833 0.067393 0.052435
						CHANNELS 3 Zrotation Yrotation Xrotation
						End Site
						{
							OFFSET 0.000000 0.000000 0.000000
						}
					}
				}
				JOINT Left_collar
				{
					OFFSET 0.070771 0.116689 -0.037192
					CHANNELS 3 Zrotation Yrotation Xrotation
					JOINT Left_shoulder
					{
						OFFSET 0.080652 0.031596 -0.005617
						CHANNELS 3 Zrotation Yrotation Xrotation
						JOINT Left_elbow
						{
							OFFSET 0.262654 -0.015020 -0.027939
							CHANNELS 3 Zrotation Yrotation Xrotation
							JOINT Left_wrist
							{
								OFFSET 0.250438 0.010062 -0.000990
								CHANNELS 3 Zrotation Yrotation Xrotation
								JOINT Left_palm
								{
									OFFSET 0.081198 -0.010037 -0.013706
									CHANNELS 3 Zrotation Yrotation Xrotation
									End Site
									{
										OFFSET 0.000000 0.000000 0.000000
									}
								}
							}
						}
					}
				}
				JOINT Right_collar
				{
					OFFSET -0.072972 0.115556 -0.040762
					CHANNELS 3 Zrotation Yrotation Xrotation
					JOINT Right_shoulder
					{
						OFFSET -0.082917 0.031841 -0.006673
						CHANNELS 3 Zrotation Yrotation Xrotation
						JOINT Right_elbow
						{
							OFFSET -0.252882 -0.013790 -0.020410
							CHANNELS 3 Zrotation Yrotation Xrotation
							JOINT Right_wrist
							{
								OFFSET -0.255570 0.009163 -0.005138
								CHANNELS 3 Zrotation Yrotation Xrotation
								JOINT Right_palm
								{
									OFFSET -0.080804 -0.007282 -0.010415
									CHANNELS 3 Zrotation Yrotation Xrotation
									End Site
									{
										OFFSET 0.000000 0.000000 0.000000
									}
								}
							}
						}
					}
				}
			}
		}
	}
}
MOTION
Frames: 6
Frame Time: 0.100000
-0.211144 0.036882 -0.103802 -175.005866 -0.301133 -19.056279 -6.424666 10.533964 9.150126 -8.605911 -1.352934 -2.644730 5.245432 7.658166 -11.791516 -3.136748 12.623220 -2.139998 -22.031012 -14.973761 -16.342550 2.693060 -14.552577 26.194693 20.788527 -12.825832 9.222799 -18.138319 8.610979 -9.804107 10.383381 -2.102528 30.399487 2.985074 3.143490 10.228020 4.359040 2.250423 -0.123708 -5.631297 4.174639 -12.593740 -7.050543 4.517144 -10.661608 -26.148191 -8.662050 3.254167 -47.049618 -5.511712 9.152078 -4.546920 -43.297710 21.375765 0.526990 -4.255552 6.955968 -10.879780 -7.623272 -12.515836 27.903835 17.388127 8.425548 30.756235 12.175750 2.092976 -7.338394 21.793565 -14.598011 -8.815543 3.034543 27.035470 14.406395 11.613189 -13.741314 
-0.210320 0.036291 -0.100034 -174.482565 0.306966 -19.114614 -7.033867 10.432700 9.318555 -8.506502 -1.723163 -2.238388 5.190859 7.723365 -11.872373 -3.014329 12.587441 -2.988114 -22.908208 -15.153680 -16.061239 2.797135 -14.406757 26.777206 21.000903 -13.050787 8.270552 -18.745291 8.962092 -9.847762 11.207529 -2.627009 29.758313 3.166790 3.184610 9.701251 4.274470 2.112617 0.016684 -6.481954 4.439229 -12.441713 -8.392280 5.052019 -9.641397 -26.114659 -7.886825 3.240530 -47.340872 -5.238856 9.736902 -6.025769 -44.964252 23.755541 1.007352 -4.741748 6.759023 -10.996793 -7.448466 -12.259326 28.014436 16.618005 8.225576 29.817806 11.760833 2.316756 -6.648975 22.837433 -14.523528 -9.843930 3.632866 27.074914 14.471048 11.500737 -13.761480 
-0.211179 0.036275 -0.095734 -173.791611 0.928329 -19.584118 -7.567012 10.753800 10.325257 -8.689810 -2.508758 -2.318659 5.454994 7.631128 -11.797638 -3.313247 12.778060 -4.118369 -24.604725 -15.793720 -15.718920 3.192173 -14.326324 28.206328 21.758313 -13.048967 8.175327 -19.670223 9.217234 -10.469312 12.264608 -3.103996 29.053606 3.037586 3.537279 9.340020 3.985797 2.231222 -0.043539 -7.653359 4.042381 -12.023384 -9.579021 5.351980 -9.128951 -25.991438 -7.626443 3.170504 -47.322120 -5.347780 9.941090 -7.054377 -45.031252 25.734762 1.346269 -5.045446 8.007121 -11.397714 -7.362174 -12.493865 27.771733 16.307958 8.614968 28.773814 10.670572 2.283691 -5.437425 22.892508 -14.289003 -11.044210 4.154292 27.502471 14.898584 11.572635 -14.203093 
-0.210985 0.036732 -0.092849 -173.224825 0.909642 -20.217015 -7.853898 11.010313 11.134638 -8.843193 -2.813775 -2.005601 5.616155 7.845015 -12.136050 -3.510368 12.790937 -4.450186 -25.403325 -15.831033 -15.672616 3.178339 -13.721096 29.516353 21.971304 -13.000381 7.911321 -19.914523 9.331328 -10.841921 12.754437 -3.452181 28.846039 3.014800 3.821942 9.363006 3.870720 2.287089 -0.000701 -8.306011 3.922193 -12.009382 -10.477010 5.723051 -8.997618 -26.018394 -7.017212 3.044521 -47.320075 -5.031305 9.722833 -6.565913 -45.684134 25.232112 1.903037 -5.069199 7.340656 -11.453560 -7.226702 -12.131008 27.812517 16.163038 8.590483 27.704860 10.745716 1.846487 -5.021135 22.207078 -14.934671 -11.584615 4.243349 27.921263 14.880256 11.466942 -14.217423 
-0.208756 0.036000 -0.091663 -173.111197 0.682747 -20.434761 -7.773145 11.137035 11.337249 -8.772801 -2.779074 -1.884395 5.523533 7.994544 -12.159166 -3.406673 12.729881 -4.432444 -25.307686 -15.759783 -15.427438 3.253826 -13.573265 29.412226 21.792368 -12.858263 7.715825 -19.672209 9.242946 -10.724682 12.870748 -3.463167 28.669461 3.085962 3.836349 9.486274 3.913943 2.338664 0.044458 -8.254185 4.103441 -11.784261 -10.569077 5.880891 -9.104444 -25.887768 -6.900458 3.046115 -47.226060 -4.744802 9.691162 -6.663841 -45.436126 25.393849 1.813753 -4.945621 7.384041 -11.472444 -7.219131 -12.314876 27.713875 16.191056 8.588397 27.655077 10.933067 1.684144 -4.855364 21.754297 -15.057511 -11.628945 4.088482 27.702373 14.927529 11.445537 -14.313661 
-0.206591 0.035576 -0.092408 -173.234219 0.474094 -20.421589 -7.571392 11.069434 11.044941 -8.633071 -2.611304 -1.490544 5.461526 8.178571 -12.231035 -3.241914 12.547836 -4.297398 -24.948463 -15.705994 -15.415199 3.321832 -13.606403 29.206348 21.647542 -12.680295 7.772758 -19.419579 8.967767 -10.593554 12.731775 -3.330667 28.580089 3.240294 3.716693 9.444097 4.036638 2.308601 0.120929 -7.988813 4.325887 -11.423591 -10.379395 5.966640 -9.113980 -25.595493 -6.813869 3.067270 -47.430967 -4.528796 9.785759 -7.099721 -44.821244 25.982599 1.580427 -4.795165 7.470221 -11.509106 -7.271789 -12.600105 27.480127 16.045524 8.468649 28.040573 11.145662 1.606742 -4.960204 21.394684 -14.962251 -11.481612 3.906152 27.394455 14.981451 11.468857 -14.413481 
